# Blender 4.5.4 LTS
# www.blender.org
o Cube.005
v -5.448117 -4.152423 5.607653
v -5.962133 -2.438240 4.075697
v -4.481686 -5.415651 3.869898
v -4.995701 -3.701467 2.337942
v -3.362134 -3.144774 6.035256
v -3.876150 -1.430590 4.503300
v -2.395703 -4.408001 4.297501
v -2.909718 -2.693817 2.765545
v 4.492348 -1.697844 -0.968716
v 3.978333 0.016340 -2.500672
v 5.458779 -2.961071 -2.706470
v 4.944764 -1.246887 -4.238427
v 6.578330 -0.690194 -0.541113
v 6.064315 1.023990 -2.073069
v 7.544762 -1.953421 -2.278868
v 7.030746 -0.239237 -3.810824
v -0.742078 -4.169227 -0.056963
v -0.928726 -2.388415 0.834033
v -1.074271 -3.314712 -1.834448
v -1.260920 -1.533901 -0.943451
v 1.221289 -3.855352 -0.273003
v 1.034641 -2.074541 0.617993
v 0.889096 -3.000838 -2.050488
v 0.702447 -1.220027 -1.159492
v 3.763966 4.527175 -5.719839
v 3.577317 6.307987 -4.828843
v 3.431773 5.381689 -7.497325
v 3.245124 7.162501 -6.606328
v 5.727332 4.841050 -5.935880
v 5.540684 6.621860 -5.044883
v 5.395139 5.695564 -7.713365
v 5.208490 7.476374 -6.822368
v -1.839375 1.250538 7.743781
v -1.810961 1.893550 5.850179
v -2.642043 -0.480346 7.143979
v -2.613629 0.162665 5.250377
v -0.007731 0.482050 7.510309
v 0.020682 1.125061 5.616707
v -0.810400 -1.248835 6.910507
v -0.781986 -0.605824 5.016905
v 2.606534 -6.018689 2.131266
v 2.634948 -5.375677 0.237663
v 1.803866 -7.749573 1.531464
v 1.832279 -7.106562 -0.362138
v 4.438178 -6.787178 1.897793
v 4.466592 -6.144166 0.004191
v 3.635509 -8.518063 1.297992
v 3.663923 -7.875051 -0.595610
v -0.429371 4.314407 -6.121035
v -1.220928 1.503363 -6.601302
v -1.515511 4.150717 -3.372819
v -2.307068 1.339674 -3.853087
v 2.207467 3.403129 -5.133189
v 1.415911 0.592086 -5.613458
v 1.121327 3.239440 -2.384974
v 0.329771 0.428398 -2.865243
v 3.897047 -4.576025 5.858993
v 3.105490 -7.387068 5.378725
v 2.810906 -4.739714 8.607208
v 2.019350 -7.550757 8.126940
v 6.533887 -5.487302 6.846837
v 5.742329 -8.298345 6.366569
v 5.447746 -5.650991 9.595053
v 4.656189 -8.462034 9.114784
v -11.495028 1.396500 -6.051917
v -10.526447 -1.282375 -5.249011
v -11.193042 2.341416 -3.263527
v -10.224462 -0.337459 -2.460621
v -8.714770 2.227126 -6.634502
v -7.746190 -0.451749 -5.831595
v -8.412785 3.172043 -3.846112
v -7.444203 0.493168 -3.043206
v 1.225792 2.734385 2.761109
v 2.194373 0.055510 3.564015
v 1.527779 3.679303 5.549499
v 2.496359 1.000427 6.352405
v 4.006051 3.565012 2.178524
v 4.974633 0.886137 2.981431
v 4.308039 4.509929 4.966914
v 5.276618 1.831052 5.769821
v -6.812702 5.514130 2.377628
v -4.536512 5.304878 2.947453
v -6.214101 5.920621 0.135761
v -3.937911 5.711370 0.705587
v -6.913513 3.203176 1.931692
v -4.637322 2.993925 2.501517
v -6.314911 3.609668 -0.310174
v -4.038721 3.400417 0.259650
v -1.486455 -2.011850 -5.564485
v 0.789734 -2.221101 -4.994659
v -0.887855 -1.605357 -7.806350
v 1.388336 -1.814608 -7.236525
v -1.587266 -4.322802 -6.010420
v 0.688923 -4.532053 -5.440596
v -0.988665 -3.916310 -8.252286
v 1.287525 -4.125562 -7.682462
vn -0.8855 -0.4277 -0.1815
vn 0.4102 -0.5362 -0.7377
vn 0.8855 0.4277 0.1815
vn -0.4102 0.5362 0.7377
vn 0.2182 -0.7277 0.6503
vn -0.2182 0.7277 -0.6503
vn -0.9817 -0.1569 0.1080
vn -0.1661 0.4273 -0.8887
vn 0.9817 0.1569 -0.1080
vn 0.1661 -0.4273 0.8887
vn 0.0933 -0.8904 -0.4455
vn -0.0933 0.8904 0.4455
vn -0.9158 0.3842 0.1167
vn -0.4013 -0.8654 -0.2999
vn 0.9158 -0.3842 -0.1167
vn 0.4013 0.8654 0.2999
vn -0.0142 -0.3215 0.9468
vn 0.0142 0.3215 -0.9468
vn -0.8909 0.3079 -0.3338
vn -0.3670 -0.0553 0.9286
vn 0.8909 -0.3079 0.3338
vn 0.3670 0.0553 -0.9286
vn 0.2675 0.9498 0.1623
vn -0.2675 -0.9498 -0.1623
vn -0.9394 -0.2807 0.1968
vn 0.1020 0.3193 0.9422
vn 0.9394 0.2807 -0.1968
vn -0.1020 -0.3193 -0.9422
vn -0.3273 0.9052 -0.2713
vn 0.3273 -0.9052 0.2713
vn 0.0428 0.9810 0.1893
vn 0.2541 0.1726 -0.9517
vn -0.0428 -0.9810 -0.1893
vn -0.2541 -0.1726 0.9517
vn -0.9662 0.0888 -0.2419
vn 0.9662 -0.0888 0.2419
vt 0.625000 0.000000
vt 0.375000 0.250000
vt 0.375000 0.000000
vt 0.625000 0.250000
vt 0.375000 0.500000
vt 0.625000 0.500000
vt 0.375000 0.750000
vt 0.625000 0.750000
vt 0.375000 1.000000
vt 0.125000 0.750000
vt 0.125000 0.500000
vt 0.875000 0.500000
vt 0.625000 1.000000
vt 0.875000 0.750000
s 0
f 2/1/1 3/2/1 1/3/1
f 4/4/2 7/5/2 3/2/2
f 8/6/3 5/7/3 7/5/3
f 6/8/4 1/9/4 5/7/4
f 7/5/5 1/10/5 3/11/5
f 4/12/6 6/8/6 8/6/6
f 10/1/1 11/2/1 9/3/1
f 12/4/2 15/5/2 11/2/2
f 16/6/3 13/7/3 15/5/3
f 14/8/4 9/9/4 13/7/4
f 15/5/5 9/10/5 11/11/5
f 12/12/6 14/8/6 16/6/6
f 18/1/7 19/2/7 17/3/7
f 19/2/8 24/6/8 23/5/8
f 24/6/9 21/7/9 23/5/9
f 22/8/10 17/9/10 21/7/10
f 23/5/11 17/10/11 19/11/11
f 20/12/12 22/8/12 24/6/12
f 26/1/7 27/2/7 25/3/7
f 27/2/8 32/6/8 31/5/8
f 32/6/9 29/7/9 31/5/9
f 30/8/10 25/9/10 29/7/10
f 31/5/11 25/10/11 27/11/11
f 28/12/12 30/8/12 32/6/12
f 34/1/13 35/2/13 33/3/13
f 36/4/14 39/5/14 35/2/14
f 40/6/15 37/7/15 39/5/15
f 38/8/16 33/9/16 37/7/16
f 39/5/17 33/10/17 35/11/17
f 36/12/18 38/8/18 40/6/18
f 42/1/13 43/2/13 41/3/13
f 44/4/14 47/5/14 43/2/14
f 48/6/15 45/7/15 47/5/15
f 45/7/16 42/13/16 41/9/16
f 43/11/17 45/7/17 41/10/17
f 48/6/18 42/14/18 46/8/18
f 49/3/19 52/4/19 51/2/19
f 52/4/20 55/5/20 51/2/20
f 56/6/21 53/7/21 55/5/21
f 54/8/22 49/9/22 53/7/22
f 51/11/23 53/7/23 49/10/23
f 56/6/24 50/14/24 54/8/24
f 57/3/19 60/4/19 59/2/19
f 59/2/20 64/6/20 63/5/20
f 64/6/21 61/7/21 63/5/21
f 62/8/22 57/9/22 61/7/22
f 63/5/23 57/10/23 59/11/23
f 64/6/24 58/14/24 62/8/24
f 66/1/25 67/2/25 65/3/25
f 68/4/26 71/5/26 67/2/26
f 72/6/27 69/7/27 71/5/27
f 70/8/28 65/9/28 69/7/28
f 71/5/29 65/10/29 67/11/29
f 72/6/30 66/14/30 70/8/30
f 74/1/25 75/2/25 73/3/25
f 75/2/26 80/6/26 79/5/26
f 80/6/27 77/7/27 79/5/27
f 77/7/28 74/13/28 73/9/28
f 75/11/29 77/7/29 73/10/29
f 80/6/30 74/14/30 78/8/30
f 82/1/31 83/2/31 81/3/31
f 84/4/32 87/5/32 83/2/32
f 87/5/33 86/8/33 85/7/33
f 85/7/34 82/13/34 81/9/34
f 83/11/35 85/7/35 81/10/35
f 88/6/36 82/14/36 86/8/36
f 89/3/31 92/4/31 91/2/31
f 91/2/32 96/6/32 95/5/32
f 96/6/33 93/7/33 95/5/33
f 94/8/34 89/9/34 93/7/34
f 95/5/35 89/10/35 91/11/35
f 92/12/36 94/8/36 96/6/36
f 2/1/1 4/4/1 3/2/1
f 4/4/2 8/6/2 7/5/2
f 8/6/3 6/8/3 5/7/3
f 6/8/4 2/13/4 1/9/4
f 7/5/5 5/7/5 1/10/5
f 4/12/6 2/14/6 6/8/6
f 10/1/1 12/4/1 11/2/1
f 12/4/2 16/6/2 15/5/2
f 16/6/3 14/8/3 13/7/3
f 14/8/4 10/13/4 9/9/4
f 15/5/5 13/7/5 9/10/5
f 12/12/6 10/14/6 14/8/6
f 18/1/7 20/4/7 19/2/7
f 19/2/8 20/4/8 24/6/8
f 24/6/9 22/8/9 21/7/9
f 22/8/10 18/13/10 17/9/10
f 23/5/11 21/7/11 17/10/11
f 20/12/12 18/14/12 22/8/12
f 26/1/7 28/4/7 27/2/7
f 27/2/8 28/4/8 32/6/8
f 32/6/9 30/8/9 29/7/9
f 30/8/10 26/13/10 25/9/10
f 31/5/11 29/7/11 25/10/11
f 28/12/12 26/14/12 30/8/12
f 34/1/13 36/4/13 35/2/13
f 36/4/14 40/6/14 39/5/14
f 40/6/15 38/8/15 37/7/15
f 38/8/16 34/13/16 33/9/16
f 39/5/17 37/7/17 33/10/17
f 36/12/18 34/14/18 38/8/18
f 42/1/13 44/4/13 43/2/13
f 44/4/14 48/6/14 47/5/14
f 48/6/15 46/8/15 45/7/15
f 45/7/16 46/8/16 42/13/16
f 43/11/17 47/5/17 45/7/17
f 48/6/18 44/12/18 42/14/18
f 49/3/19 50/1/19 52/4/19
f 52/4/20 56/6/20 55/5/20
f 56/6/21 54/8/21 53/7/21
f 54/8/22 50/13/22 49/9/22
f 51/11/23 55/5/23 53/7/23
f 56/6/24 52/12/24 50/14/24
f 57/3/19 58/1/19 60/4/19
f 59/2/20 60/4/20 64/6/20
f 64/6/21 62/8/21 61/7/21
f 62/8/22 58/13/22 57/9/22
f 63/5/23 61/7/23 57/10/23
f 64/6/24 60/12/24 58/14/24
f 66/1/25 68/4/25 67/2/25
f 68/4/26 72/6/26 71/5/26
f 72/6/27 70/8/27 69/7/27
f 70/8/28 66/13/28 65/9/28
f 71/5/29 69/7/29 65/10/29
f 72/6/30 68/12/30 66/14/30
f 74/1/25 76/4/25 75/2/25
f 75/2/26 76/4/26 80/6/26
f 80/6/27 78/8/27 77/7/27
f 77/7/28 78/8/28 74/13/28
f 75/11/29 79/5/29 77/7/29
f 80/6/30 76/12/30 74/14/30
f 82/1/31 84/4/31 83/2/31
f 84/4/32 88/6/32 87/5/32
f 87/5/33 88/6/33 86/8/33
f 85/7/34 86/8/34 82/13/34
f 83/11/35 87/5/35 85/7/35
f 88/6/36 84/12/36 82/14/36
f 89/3/31 90/1/31 92/4/31
f 91/2/32 92/4/32 96/6/32
f 96/6/33 94/8/33 93/7/33
f 94/8/34 90/13/34 89/9/34
f 95/5/35 93/7/35 89/10/35
f 92/12/36 90/14/36 94/8/36
